<svg width="19" height="13" viewBox="0 0 19 13" fill="none" xmlns="http://www.w3.org/2000/svg">
<path d="M5.37499 6.5344L5.37985 5.75589L5.37985 5.75589L5.37499 6.5344ZM17.863 7.0849C18.1463 6.78087 18.1493 6.28795 17.8699 5.98392L13.3166 1.02949C13.0372 0.725458 12.5811 0.725457 12.2979 1.02949C12.0147 1.33351 12.0116 1.82644 12.291 2.13047L16.3384 6.53441L12.236 10.9383C11.9528 11.2424 11.9497 11.7353 12.2291 12.0393C12.5086 12.3434 12.9647 12.3434 13.2479 12.0393L17.863 7.0849ZM0.852254 7.31292L5.37013 7.31292L5.37985 5.75589L0.861979 5.75589L0.852254 7.31292ZM5.37013 7.31292L17.3523 7.31292L17.362 5.7559L5.37985 5.75589L5.37013 7.31292Z" fill="black"/>
</svg>
