<svg width="26" height="26" viewBox="0 0 26 26" fill="none" xmlns="http://www.w3.org/2000/svg">
<g clip-path="url(#clip0_11_16)">
<path d="M8.67723 10.3984C8.69838 10.5031 8.74917 10.5994 8.82534 10.675L12.617 14.4666C12.7228 14.5724 12.8614 14.6253 13 14.6253C13.1386 14.6253 13.2772 14.5724 13.383 14.4666L17.1746 10.675C17.2508 10.5994 17.3016 10.5031 17.3227 10.3984L18.4008 5.00669L19.4841 0.673458C19.5391 0.451295 19.4492 0.218024 19.2577 0.0910745C19.0683 -0.0348176 18.8187 -0.0284701 18.6335 0.109059L14.4441 3.25054H11.5559L7.36643 0.109059C7.18129 -0.029528 6.93268 -0.0353466 6.74225 0.0910745C6.55076 0.218025 6.46084 0.451295 6.51585 0.673458L7.59601 4.99452L8.67723 10.3984ZM12.0394 6.15717C12.142 6.03181 12.2964 5.95881 12.4583 5.95881H13.5416C13.7035 5.95881 13.858 6.03181 13.9606 6.15717C14.0632 6.28253 14.1045 6.44757 14.0727 6.60679L13.5311 9.31505C13.4803 9.5679 13.2581 9.75039 13 9.75039C12.7418 9.75039 12.5197 9.5679 12.4689 9.31505L11.9272 6.60679C11.8955 6.44757 11.9367 6.28253 12.0394 6.15717Z" fill="white"/>
<path d="M4.34285 22.3158C4.38199 22.5131 4.52799 22.6723 4.72054 22.7289L10.2165 24.3469L2.61053 13.652L4.34285 22.3158Z" fill="white"/>
<path d="M21.2784 22.7279C21.471 22.6713 21.6169 22.5121 21.6561 22.3148L23.3883 13.6537L15.785 24.3461L21.2784 22.7279Z" fill="white"/>
<path d="M25.7473 0.0842057C25.5579 -0.035339 25.3156 -0.0258177 25.1337 0.109067L20.8702 3.30609L19.8577 3.64363L19.4515 5.26959L19.1548 6.75556L20.9114 6.00272C21.1844 5.88371 21.5039 6.01066 21.6234 6.2873C21.7409 6.56183 21.6139 6.88026 21.3388 6.99822L18.8974 8.0445L18.689 9.08893L19.8704 8.69512C20.1561 8.60097 20.4607 8.75331 20.556 9.03736C20.6501 9.32141 20.4967 9.6282 20.2132 9.72236L18.4448 10.3118L18.3851 10.611C18.3216 10.9273 18.1671 11.214 17.9407 11.4409L14.1491 15.2325C13.8423 15.5393 13.4339 15.7086 13.0001 15.7086C12.5664 15.7086 12.158 15.5393 11.8512 15.2325L8.05954 11.4409C7.83314 11.214 7.67868 10.9273 7.61521 10.6121L7.55517 10.3117L5.78708 9.72236C5.50355 9.6282 5.35015 9.32141 5.44431 9.03736C5.53952 8.75331 5.84844 8.6015 6.12986 8.69512L7.31065 9.08873L7.10184 8.04411L4.66143 6.99822C4.38637 6.88027 4.25941 6.56183 4.37684 6.2873C4.49639 6.01066 4.81589 5.88318 5.08884 6.00272L6.84417 6.75497L6.53716 5.21934L6.14295 3.64377L5.1301 3.30609L0.86659 0.109067C0.685682 -0.0268757 0.442355 -0.0363969 0.252983 0.0842057C0.0625538 0.20375 -0.033719 0.428029 0.0107146 0.648604L2.09883 11.092C2.118 11.1118 2.14187 11.1248 2.15834 11.1479L11.8969 24.8416L12.559 25.772C12.6605 25.9154 12.8245 26 13.0001 26C13.1758 26 13.3397 25.9154 13.4413 25.772L14.1028 24.8417L14.1046 24.8412L23.8419 11.1479C23.8582 11.1253 23.8817 11.1126 23.9006 11.0932L25.9896 0.648605C26.034 0.428558 25.9377 0.20375 25.7473 0.0842057ZM11.8565 17.5816C11.7634 17.7641 11.5761 17.8752 11.3751 17.8752C11.3455 17.8752 11.3159 17.8726 11.2863 17.8678L8.03627 17.3261C7.84901 17.2949 7.69244 17.1685 7.62261 16.9929L6.53928 14.2846C6.4557 14.0762 6.50966 13.8371 6.6747 13.6848C6.84079 13.533 7.08095 13.4981 7.28407 13.5991L9.45074 14.6824C9.50258 14.7083 9.55018 14.7427 9.59144 14.784L11.7581 16.9506C11.9242 17.1172 11.9644 17.3722 11.8565 17.5816ZM19.461 14.2846L18.3777 16.9929C18.3078 17.1685 18.1513 17.2949 17.964 17.3261L14.714 17.8678C14.6844 17.8726 14.6548 17.8752 14.6251 17.8752C14.4241 17.8752 14.2379 17.7641 14.1438 17.5816C14.0359 17.3722 14.0761 17.1172 14.2422 16.9506L16.4088 14.784C16.4501 14.7427 16.4977 14.7083 16.5495 14.6824L18.7162 13.5991C18.9183 13.4981 19.1584 13.533 19.3256 13.6848C19.4906 13.8371 19.5446 14.0762 19.461 14.2846Z" fill="white"/>
</g>
<defs>
<clipPath id="clip0_11_16">
<rect width="26" height="26" fill="white"/>
</clipPath>
</defs>
</svg>
